<?xml version="1.0" standalone="no"?>
<!DOCTYPE svg PUBLIC "-//W3C//DTD SVG 20010904//EN"
 "http://www.w3.org/TR/2001/REC-SVG-20010904/DTD/svg10.dtd">
<svg version="1.0" xmlns="http://www.w3.org/2000/svg"
 width="866.000000pt" height="650.000000pt" viewBox="0 0 866.000000 650.000000"
 preserveAspectRatio="xMidYMid meet">

<g transform="translate(0.000000,650.000000) scale(0.100000,-0.100000)"
fill="#000000" stroke="none">
<path d="M2823 5496 c-125 -29 -260 -104 -352 -195 -157 -156 -237 -398 -201
-611 19 -118 29 -136 86 -149 27 -6 164 -38 304 -71 140 -33 314 -74 385 -91
72 -16 137 -32 146 -35 13 -4 18 5 24 42 3 25 48 255 99 510 51 255 89 468 86
473 -13 22 -131 84 -205 107 -101 32 -277 41 -372 20z"/>
<path d="M2159 4306 c-273 -112 -483 -341 -573 -622 -35 -112 -46 -182 -46
-304 0 -58 5 -133 11 -166 26 -150 102 -325 192 -442 93 -120 260 -253 383
-302 l54 -22 43 38 c114 105 491 445 832 753 209 189 384 348 388 355 5 6 -37
108 -106 256 l-114 245 -64 17 c-87 22 -928 218 -937 218 -4 0 -32 -11 -63
-24z"/>
<path d="M5828 3465 c-357 -311 -648 -571 -648 -577 0 -10 76 -158 214 -418
l45 -85 73 -17 c404 -97 898 -210 918 -211 14 0 65 18 113 41 214 100 376 263
481 483 74 153 91 235 90 424 -1 171 -13 241 -68 376 -58 145 -183 309 -304
403 -68 51 -207 133 -242 141 -22 5 -105 -64 -672 -560z"/>
</g>
</svg>
